# xmcd
#
# Track frame offsets: 
#        150
#        12618
#        26738
#        40752
#        51065
#        65548
#        80430
#        94845
#        106504
#        121110
#        135799
#        150122
#        164838
#        178764
#        194275
#        206661
#        223286
#        236811
#        251906
#        263935
#
# Disc length: 3705 seconds
#
# Revision: 0
# Processed by: cddbd v1.5.2PL0 Copyright (c) Steve Scherf et al.
# Submitted via: ExactAudioCopy v0.99pb3
#
DISCID=170e7714
DTITLE=Various Artist - Dance Band Years 2 - Vocal Legends
DYEAR=2006
DGENRE=Jazz
TTITLE0=Andrews Sisters - Boogie Woogie Bugle Boy
TTITLE1=Anne Shelton - Taking A Chance On Love
TTITLE2=Bing Crosby - Too Marvellous For Words
TTITLE3=Kay Davis - Embraceable You
TTITLE4=Frank Sinatra - I'll Never Smile Again
TTITLE5=Rosemary Clooney - I Only Saw Him Once
TTITLE6=Billy Eckstine - Skylark
TTITLE7=Ella Fitzgerald - A-Tisket, A-Tasket
TTITLE8=Martha Tilton - And The Angels Sing
TTITLE9=Harry James - Always
TTITLE10=Vera Lynn and  Denny Dennis - Two Sleepy People
TTITLE11=Duke Ellington - I Got It Bad (And That Ain't Good)
TTITLE12=Al Jolson - April Showers
TTITLE13=Bob Eberly - Helen O'Connell - Amapola
TTITLE14=Peggy Lee - I Gotta Right To Sing The Blues
TTITLE15=Connie Haines - All Of Me
TTITLE16=Mills Brothers and  Louis Armstrong - Flat Foot Floogie
TTITLE17=Doris Day - My Dreams Are Getting Better All The Time
TTITLE18=Ames Brothers - Rag Mop
TTITLE19=Helen Forrest - I'm Beginning To See The Light
EXTD=
EXTT0=
EXTT1=
EXTT2=
EXTT3=
EXTT4=
EXTT5=
EXTT6=
EXTT7=
EXTT8=
EXTT9=
EXTT10=
EXTT11=
EXTT12=
EXTT13=
EXTT14=
EXTT15=
EXTT16=
EXTT17=
EXTT18=
EXTT19=
PLAYORDER=
